<svg id="artwork" xmlns="http://www.w3.org/2000/svg" viewBox="0 0 111.72 20.81"><defs><style>.cls-1{fill:#e70641;}</style></defs><path class="cls-1" d="M11.47,0c6.08.52,12.79,3.61,16.62,8,4.9,5.62,3.21,11.23-3.77,12.54S7.7,18.36,2.8,12.74c-3.75-4.3-3.64-8.59-.25-11L22,16.12Z"/><path d="M107.38,20.5,105,10.69c-.35-1.16-.49-2.33-.74-3.49h0c-.21,1.19-.3,2.36-.62,3.55l-2.47,9.75H96.85L102.51.08h3.3l5.91,20.42Z"/><path d="M42.92.08l2.44,9.8c.35,1.17.49,2.33.73,3.5h0c.22-1.2.3-2.36.63-3.55L49.23.08h4.23L47.8,20.5H44.49L38.59.08Z"/><path d="M60.52.08V20.5h-4V.08Z"/><path d="M83.34.08l2,12.05h.05L87,.08h5.42L94.55,20.5H90.41l-1-14.71h-.05l-.65,5L87,20.5H83.88l-2-9.78-.68-4.55V5.79h0L80.58,20.5H76.24L78,.08Z"/><path d="M70.53.08A5,5,0,0,0,69,2.28C67.89,4.83,69,6.78,70,8.51c.14.25.3.51.44.77,2.17,3.73,3,6.48,1.41,10.41-.12.27-.38.8-.38.8H66.62a5.17,5.17,0,0,0,1.49-1.93c1.11-2.69-.2-5.16-1.48-7.54-1.53-2.87-3.12-5.84-1.44-9.9.16-.38.51-1,.51-1Z"/></svg>